<svg version="1" xmlns="http://www.w3.org/2000/svg" width="1365.333" height="1365.333" viewBox="0 0 1024.000000 1024.000000"><path d="M484.8.5c-.2.1-4.6.6-9.8.9-9.9.7-16.4 1.3-21.5 2.1-1.6.3-5.5.7-8.5 1.1-4.7.5-12 1.6-26.5 4-31.8 5.3-79 20-112.9 35-17.4 7.7-46.4 22.8-59 30.7-27.8 17.3-47.1 31.3-69.7 50.7-14.8 12.8-38.6 36.5-50.9 50.9-3 3.5-6 6.9-6.5 7.5-2.8 2.9-23.6 30.3-28.8 37.8C68.8 253 46.4 295.5 34 329c-1.7 4.7-3.8 10.1-4.5 12-1.5 3.8-5.9 17.5-9.9 31-2.5 8.3-9.2 36.2-10.2 42.9-.3 1.8-.8 4.3-1 5.5-.9 4.6-3.3 19.4-3.9 24.1-.6 4.8-.7 6.2-1.9 17-2.8 24.7-2.8 76.4-.1 101 .8 6.5 3.4 26.8 3.9 29.5.3 1.4.7 4.1 1 6 .6 4 3.8 20.4 6 30.1 2.3 10.6 8.5 32.5 12.6 44.9 38 113.5 112.4 208.2 214.5 273 3.9 2.5 7.9 4.9 9 5.6 1.1.6 5.8 3.2 10.5 5.9 42.9 24.5 99.3 45.9 145 55.1 1.4.3 3.2.7 4 .9 2.1.6 29.5 5.3 35 6 2.5.3 6.3.7 8.5 1 4 .5 6.8.7 24.5 2.1 18.3 1.5 65.6.9 83.5-1 1.7-.2 6.2-.7 10-1 7.3-.7 12.2-1.4 16.5-2.1 1.4-.3 4.1-.7 6-1 1.9-.3 5.8-1 8.5-1.5 2.8-.5 6.4-1.1 8-1.4 12.7-2 39.6-9 60.5-15.8 98.4-32.1 182.2-91 246.6-173.3 25.9-33.1 50.5-75.2 66.9-114.5 2.6-6.3 5.4-12.9 6.1-14.5 3.3-7.8 15.4-45.2 16.9-52 .1-.6.7-2.9 1.4-5.2 1.7-6.2 6.2-27.2 7.6-35.8.3-1.7 1.2-6.6 2-11 .7-4.4 1.7-10.7 2-13.9.3-3.3.8-7.4 1-9.3.3-1.8.7-4.8.9-6.6 2.7-19.6 2.7-80.8.1-101.2-.2-1.7-.7-5.1-1-7.8-1.3-11.9-1.7-14.8-3.2-23.2-.8-5-1.7-10.4-2-12-.9-6-7.4-34.2-9.3-41-19.5-66.9-44.5-118.3-82.9-170.5-3.1-4.1-5.8-7.7-6.1-8-.3-.3-3.9-4.8-8.1-10-32.4-40.6-77.7-81-121.7-108.6-3.5-2.1-7.4-4.6-8.7-5.4-11.6-7.3-41.7-23.3-53.5-28.4-3.6-1.6-8.9-3.9-11.8-5.2-15.2-6.9-41.8-16.1-68.2-23.8-15.7-4.6-51.7-11.7-66.5-13.1-3.3-.4-7.1-.8-8.5-1-1.4-.3-5.9-.7-10-1.1-4.1-.3-8.6-.8-10-1.1-2.7-.5-64.6-1.3-65.2-.8z"/></svg>